<?xml version="1.0" encoding="UTF-8"?><svg xmlns="http://www.w3.org/2000/svg" xmlns:xlink="http://www.w3.org/1999/xlink" fill-opacity="1" color-rendering="auto" color-interpolation="auto" text-rendering="auto" stroke="black" stroke-linecap="square" width="543" stroke-miterlimit="10" shape-rendering="auto" stroke-opacity="1" fill="black" stroke-dasharray="none" font-weight="normal" stroke-width="1" height="252" font-family="'Dialog'" font-style="normal" stroke-linejoin="miter" font-size="12px" stroke-dashoffset="0" image-rendering="auto">
  <!--Generated by ySVG 2.5-->
  <defs id="genericDefs"/>
  <g>
    <defs id="defs1">
      <linearGradient x1="1037.2827" gradientUnits="userSpaceOnUse" x2="1096.616" y1="90.968" y2="90.968" id="linearGradient1" spreadMethod="reflect">
        <stop stop-opacity="1" stop-color="yellow" offset="0%"/>
        <stop stop-opacity="1" stop-color="rgb(255,153,0)" offset="100%"/>
      </linearGradient>
      <linearGradient x1="1037.2827" gradientUnits="userSpaceOnUse" x2="1096.616" y1="218" y2="218" id="linearGradient2" spreadMethod="reflect">
        <stop stop-opacity="1" stop-color="yellow" offset="0%"/>
        <stop stop-opacity="1" stop-color="rgb(255,153,0)" offset="100%"/>
      </linearGradient>
      <linearGradient x1="639.7291" gradientUnits="userSpaceOnUse" x2="727.0624" y1="278" y2="278" id="linearGradient3" spreadMethod="reflect">
        <stop stop-opacity="1" stop-color="yellow" offset="0%"/>
        <stop stop-opacity="1" stop-color="rgb(255,153,0)" offset="100%"/>
      </linearGradient>
      <linearGradient x1="820.9613" gradientUnits="userSpaceOnUse" x2="923.628" y1="278" y2="278" id="linearGradient4" spreadMethod="reflect">
        <stop stop-opacity="1" stop-color="yellow" offset="0%"/>
        <stop stop-opacity="1" stop-color="rgb(255,153,0)" offset="100%"/>
      </linearGradient>
      <linearGradient x1="726.5118" gradientUnits="userSpaceOnUse" x2="767.8452" y1="218" y2="218" id="linearGradient5" spreadMethod="reflect">
        <stop stop-opacity="1" stop-color="yellow" offset="0%"/>
        <stop stop-opacity="1" stop-color="rgb(255,153,0)" offset="100%"/>
      </linearGradient>
      <linearGradient x1="664.4611" gradientUnits="userSpaceOnUse" x2="723.7944" y1="95.468" y2="95.468" id="linearGradient6" spreadMethod="reflect">
        <stop stop-opacity="1" stop-color="yellow" offset="0%"/>
        <stop stop-opacity="1" stop-color="rgb(255,153,0)" offset="100%"/>
      </linearGradient>
      <linearGradient x1="824.7947" gradientUnits="userSpaceOnUse" x2="912.128" y1="95.468" y2="95.468" id="linearGradient7" spreadMethod="reflect">
        <stop stop-opacity="1" stop-color="yellow" offset="0%"/>
        <stop stop-opacity="1" stop-color="rgb(255,153,0)" offset="100%"/>
      </linearGradient>
      <linearGradient x1="1036.1934" gradientUnits="userSpaceOnUse" x2="1099.884" y1="281.472" y2="281.472" id="linearGradient8" spreadMethod="reflect">
        <stop stop-opacity="1" stop-color="yellow" offset="0%"/>
        <stop stop-opacity="1" stop-color="rgb(255,153,0)" offset="100%"/>
      </linearGradient>
      <clipPath clipPathUnits="userSpaceOnUse" id="clipPath1">
        <path d="M0 0 L543 0 L543 252 L0 252 L0 0 Z"/>
      </clipPath>
      <clipPath clipPathUnits="userSpaceOnUse" id="clipPath2">
        <path d="M581 75 L1124 75 L1124 327 L581 327 L581 75 Z"/>
      </clipPath>
    </defs>
    <g fill="white" text-rendering="geometricPrecision" shape-rendering="geometricPrecision" transform="translate(-581,-75)" stroke="white">
      <rect x="581" width="543" height="252" y="75" clip-path="url(#clipPath2)" stroke="none"/>
    </g>
    <g fill="url(#linearGradient1)" text-rendering="geometricPrecision" shape-rendering="geometricPrecision" transform="matrix(1,0,0,1,-581,-75)" stroke="url(#linearGradient1)">
      <rect x="1007.616" y="90.968" clip-path="url(#clipPath2)" width="89" rx="4" ry="4" height="39" stroke="none"/>
    </g>
    <g text-rendering="geometricPrecision" stroke-miterlimit="1.45" shape-rendering="geometricPrecision" font-family="sans-serif" transform="matrix(1,0,0,1,-581,-75)" stroke-linecap="butt">
      <text x="1026.4373" xml:space="preserve" y="115.1819" clip-path="url(#clipPath2)" stroke="none">Paradigm</text>
      <rect x="1007.616" y="90.968" clip-path="url(#clipPath2)" fill="none" width="89" rx="4" ry="4" height="39"/>
    </g>
    <g fill="url(#linearGradient2)" text-rendering="geometricPrecision" shape-rendering="geometricPrecision" transform="matrix(1,0,0,1,-581,-75)" stroke="url(#linearGradient2)">
      <rect x="1007.616" y="218" clip-path="url(#clipPath2)" width="89" rx="4" ry="4" height="30" stroke="none"/>
    </g>
    <g text-rendering="geometricPrecision" stroke-miterlimit="1.45" shape-rendering="geometricPrecision" font-family="sans-serif" transform="matrix(1,0,0,1,-581,-75)" stroke-linecap="butt">
      <text x="1026.4402" xml:space="preserve" y="237.7139" clip-path="url(#clipPath2)" stroke="none">Construct</text>
      <rect x="1007.616" y="218" clip-path="url(#clipPath2)" fill="none" width="89" rx="4" ry="4" height="30"/>
    </g>
    <g fill="url(#linearGradient3)" text-rendering="geometricPrecision" shape-rendering="geometricPrecision" transform="matrix(1,0,0,1,-581,-75)" stroke="url(#linearGradient3)">
      <rect x="596.0624" y="278" clip-path="url(#clipPath2)" width="131" rx="4" ry="4" height="30" stroke="none"/>
    </g>
    <g text-rendering="geometricPrecision" stroke-miterlimit="1.45" shape-rendering="geometricPrecision" font-family="sans-serif" transform="matrix(1,0,0,1,-581,-75)" stroke-linecap="butt">
      <text x="613.5302" xml:space="preserve" y="297.7139" clip-path="url(#clipPath2)" stroke="none">TechnologySpace</text>
      <rect x="596.0624" y="278" clip-path="url(#clipPath2)" fill="none" width="131" rx="4" ry="4" height="30"/>
    </g>
    <g fill="url(#linearGradient4)" text-rendering="geometricPrecision" shape-rendering="geometricPrecision" transform="matrix(1,0,0,1,-581,-75)" stroke="url(#linearGradient4)">
      <rect x="769.628" y="278" clip-path="url(#clipPath2)" width="154" rx="4" ry="4" height="30" stroke="none"/>
    </g>
    <g text-rendering="geometricPrecision" stroke-miterlimit="1.45" shape-rendering="geometricPrecision" font-family="sans-serif" transform="matrix(1,0,0,1,-581,-75)" stroke-linecap="butt">
      <text x="789.9415" xml:space="preserve" y="297.7139" clip-path="url(#clipPath2)" stroke="none">ProgrammingDomain</text>
      <rect x="769.628" y="278" clip-path="url(#clipPath2)" fill="none" width="154" rx="4" ry="4" height="30"/>
    </g>
    <g fill="url(#linearGradient5)" text-rendering="geometricPrecision" shape-rendering="geometricPrecision" transform="matrix(1,0,0,1,-581,-75)" stroke="url(#linearGradient5)">
      <rect x="705.8452" y="218" clip-path="url(#clipPath2)" width="62" rx="4" ry="4" height="30" stroke="none"/>
    </g>
    <g text-rendering="geometricPrecision" stroke-miterlimit="1.45" shape-rendering="geometricPrecision" font-family="sans-serif" transform="matrix(1,0,0,1,-581,-75)" stroke-linecap="butt">
      <text x="724.5054" xml:space="preserve" y="237.7139" clip-path="url(#clipPath2)" stroke="none">Role</text>
      <rect x="705.8452" y="218" clip-path="url(#clipPath2)" fill="none" width="62" rx="4" ry="4" height="30"/>
    </g>
    <g fill="url(#linearGradient6)" text-rendering="geometricPrecision" shape-rendering="geometricPrecision" transform="matrix(1,0,0,1,-581,-75)" stroke="url(#linearGradient6)">
      <rect x="634.7944" y="95.468" clip-path="url(#clipPath2)" width="89" rx="4" ry="4" height="30" stroke="none"/>
    </g>
    <g text-rendering="geometricPrecision" stroke-miterlimit="1.45" shape-rendering="geometricPrecision" font-family="sans-serif" transform="matrix(1,0,0,1,-581,-75)" stroke-linecap="butt">
      <text x="641.2729" xml:space="preserve" y="115.1819" clip-path="url(#clipPath2)" stroke="none">DesignPattern</text>
      <rect x="634.7944" y="95.468" clip-path="url(#clipPath2)" fill="none" width="89" rx="4" ry="4" height="30"/>
    </g>
    <g fill="url(#linearGradient7)" text-rendering="geometricPrecision" shape-rendering="geometricPrecision" transform="matrix(1,0,0,1,-581,-75)" stroke="url(#linearGradient7)">
      <rect x="781.128" y="95.468" clip-path="url(#clipPath2)" width="131" rx="4" ry="4" height="30" stroke="none"/>
    </g>
    <g text-rendering="geometricPrecision" stroke-miterlimit="1.45" shape-rendering="geometricPrecision" font-family="sans-serif" transform="matrix(1,0,0,1,-581,-75)" stroke-linecap="butt">
      <text x="793.9376" xml:space="preserve" y="115.1819" clip-path="url(#clipPath2)" stroke="none">ArchitecturalPattern</text>
      <rect x="781.128" y="95.468" clip-path="url(#clipPath2)" fill="none" width="131" rx="4" ry="4" height="30"/>
    </g>
    <g fill="url(#linearGradient8)" text-rendering="geometricPrecision" shape-rendering="geometricPrecision" transform="matrix(1,0,0,1,-581,-75)" stroke="url(#linearGradient8)">
      <rect x="1004.348" y="281.472" clip-path="url(#clipPath2)" width="95.536" rx="4" ry="4" height="30" stroke="none"/>
    </g>
    <g text-rendering="geometricPrecision" stroke-miterlimit="1.45" shape-rendering="geometricPrecision" font-family="sans-serif" transform="matrix(1,0,0,1,-581,-75)" stroke-linecap="butt">
      <text x="1008.4344" xml:space="preserve" y="301.1859" clip-path="url(#clipPath2)" stroke="none">AbstractProcess</text>
      <rect x="1004.348" y="281.472" clip-path="url(#clipPath2)" fill="none" width="95.536" rx="4" ry="4" height="30"/>
      <path fill="none" d="M1052.116 218.0278 L1052.116 134.9257" clip-path="url(#clipPath2)"/>
      <path d="M1052.116 130.9257 L1046.116 142.9257 L1052.116 130.9257 L1058.116 142.9257 Z" clip-path="url(#clipPath2)" stroke="none"/>
      <path fill="none" stroke-miterlimit="10" d="M1052.116 130.9257 L1046.116 142.9257 L1052.116 130.9257 L1058.116 142.9257 Z" clip-path="url(#clipPath2)" stroke-linecap="square"/>
      <text x="1058.1042" xml:space="preserve" y="178.6979" clip-path="url(#clipPath2)" stroke="none">aspectOf</text>
      <path fill="none" d="M1007.5952 233 L900.5306 233 L900.5306 273.0148" clip-path="url(#clipPath2)"/>
      <path d="M900.5306 277.0148 L906.5306 265.0148 L900.5306 277.0148 L894.5306 265.0148 Z" clip-path="url(#clipPath2)" stroke="none"/>
      <path fill="none" stroke-miterlimit="10" d="M900.5306 277.0148 L906.5306 265.0148 L900.5306 277.0148 L894.5306 265.0148 Z" clip-path="url(#clipPath2)" stroke-linecap="square"/>
      <text x="920.7942" xml:space="preserve" y="225.2273" clip-path="url(#clipPath2)" stroke="none">aspectOf</text>
      <path fill="none" d="M741.976 247.9742 L741.976 258 L836.184 258 L836.184 273.0293" clip-path="url(#clipPath2)"/>
      <path d="M836.184 277.0293 L842.184 265.0293 L836.184 277.0293 L830.184 265.0293 Z" clip-path="url(#clipPath2)" stroke="none"/>
      <path fill="none" stroke-miterlimit="10" d="M836.184 277.0293 L842.184 265.0293 L836.184 277.0293 L830.184 265.0293 Z" clip-path="url(#clipPath2)" stroke-linecap="square"/>
      <text x="780.2938" xml:space="preserve" y="252.6084" clip-path="url(#clipPath2)" stroke="none">aspectOf</text>
      <path fill="none" d="M736.8452 217.9963 L736.8452 207.83 L679.2944 207.83 L679.2944 130.4431" clip-path="url(#clipPath2)"/>
      <path d="M679.2944 126.4431 L673.2944 138.4431 L679.2944 126.4431 L685.2944 138.4431 Z" clip-path="url(#clipPath2)" stroke="none"/>
      <path fill="none" stroke-miterlimit="10" d="M679.2944 126.4431 L673.2944 138.4431 L679.2944 126.4431 L685.2944 138.4431 Z" clip-path="url(#clipPath2)" stroke-linecap="square"/>
      <text x="601.5498" xml:space="preserve" y="176.2536" clip-path="url(#clipPath2)" stroke="none">participantOf</text>
      <path fill="none" d="M754.1659 218.0061 L754.1659 207.83 L846.628 207.83 L846.628 130.4431" clip-path="url(#clipPath2)"/>
      <path d="M846.628 126.4431 L840.628 138.4431 L846.628 126.4431 L852.628 138.4431 Z" clip-path="url(#clipPath2)" stroke="none"/>
      <path fill="none" stroke-miterlimit="10" d="M846.628 126.4431 L840.628 138.4431 L846.628 126.4431 L852.628 138.4431 Z" clip-path="url(#clipPath2)" stroke-linecap="square"/>
      <text x="774.7869" xml:space="preserve" y="167.9497" clip-path="url(#clipPath2)" stroke="none">participantOf</text>
      <path fill="none" d="M1004.3394 296.472 L928.6309 296.472" clip-path="url(#clipPath2)"/>
      <path d="M924.6309 296.472 L936.6309 302.472 L924.6309 296.472 L936.6309 290.472 Z" clip-path="url(#clipPath2)" stroke="none"/>
      <path fill="none" stroke-miterlimit="10" d="M924.6309 296.472 L936.6309 302.472 L924.6309 296.472 L936.6309 290.472 Z" clip-path="url(#clipPath2)" stroke-linecap="square"/>
      <text x="944.0495" xml:space="preserve" y="289.6179" clip-path="url(#clipPath2)" stroke="none">aspectOf</text>
    </g>
  </g>
</svg>
